<svg xmlns="http://www.w3.org/2000/svg" width="256" height="256" viewBox="0 0 100 100"><rect width="100" height="100" rx="0" fill="#000000"></rect><path fill="#fff" d="M32.30 25.71L38.65 25.71L38.65 61.25Q38.65 67.18 34.99 70.73Q31.34 74.29 25.33 74.29L25.33 74.29Q19.26 74.29 15.60 70.67Q11.95 67.04 11.95 60.76L11.95 60.76L18.23 60.76Q18.29 64.28 20.05 66.49Q21.81 68.70 25.33 68.70L25.33 68.70Q28.85 68.70 30.58 66.59Q32.30 64.49 32.30 61.25L32.30 61.25L32.30 25.71ZM81.77 25.71L88.05 25.71L88.05 73.81L81.77 73.81L81.77 52.00L57.28 52.00L57.28 73.81L51.00 73.81L51.00 25.71L57.28 25.71L57.28 46.83L81.77 46.83L81.77 25.71Z"></path></svg>